  0
SECTION
  2
HEADER
  9
$AUNITS
 70
0
  9
$INSBASE
 10
0.0
 20
0.0
 30
0.0
  9
$ANGDIR
 70
0
  9
$ACADVER
  1
AC1009
  9
$UNITMODE
 70
0
  9
$EXTMIN
 10
0.0
 20
0.0
 30
0.0
  9
$ANGBASE
 50
0.0
  9
$EXTMAX
 10
100.0
 20
100.0
 30
0.0
  0
ENDSEC
  0
SECTION
  2
TABLES
  0
TABLE
  2
LTYPE
 70
19
  0
LTYPE
  2
DIVIDE2
 70
0
  3
Divide(.5x) _ . _ . _ . _ . _ . _ . _ . _
 72
65
 73
6
 40
0.8
 49
0.5
 49
-0.1
 49
0.0
 49
-0.1
 49
0.0
 49
-0.1
  0
LTYPE
  2
DASHDOT
 70
0
  3
Dash dot __ . __ . __ . __ . __ . __ . __ . __
 72
65
 73
4
 40
1.4
 49
1.0
 49
-0.2
 49
0.0
 49
-0.2
  0
LTYPE
  2
PHANTOM
 70
0
  3
Phantom ______  __  __  ______  __  __  ______
 72
65
 73
6
 40
2.5
 49
1.25
 49
-0.25
 49
0.25
 49
-0.25
 49
0.25
 49
-0.25
  0
LTYPE
  2
CENTERX2
 70
0
  3
Center (2x) ________  __  ________  __  ________
 72
65
 73
4
 40
3.5
 49
2.5
 49
-0.25
 49
0.5
 49
-0.25
  0
LTYPE
  2
DASHDOTX2
 70
0
  3
Dash dot (2x) ____  .  ____  .  ____  .  ____
 72
65
 73
4
 40
2.4
 49
2.0
 49
-0.2
 49
0.0
 49
-0.2
  0
LTYPE
  2
PHANTOMX2
 70
0
  3
Phantom (2x)____________    ____    ____    ____________
 72
65
 73
6
 40
4.25
 49
2.5
 49
-0.25
 49
0.5
 49
-0.25
 49
0.5
 49
-0.25
  0
LTYPE
  2
DASHDOT2
 70
0
  3
Dash dot (.5x) _ . _ . _ . _ . _ . _ . _ . _
 72
65
 73
4
 40
0.7
 49
0.5
 49
-0.1
 49
0.0
 49
-0.1
  0
LTYPE
  2
CENTER
 70
0
  3
Center ____ _ ____ _ ____ _ ____ _ ____ _ ____
 72
65
 73
4
 40
2.0
 49
1.25
 49
-0.25
 49
0.25
 49
-0.25
  0
LTYPE
  2
CONTINUOUS
 70
0
  3
Solid
 72
65
 73
0
 40
0.0
  0
LTYPE
  2
DASHED
 70
0
  3
Dashed __ __ __ __ __ __ __ __ __ __ __ __ __ _
 72
65
 73
2
 40
0.6
 49
0.5
 49
-0.1
  0
LTYPE
  2
DASHED2
 70
0
  3
Dashed (.5x) _ _ _ _ _ _ _ _ _ _ _ _ _ _
 72
65
 73
2
 40
0.3
 49
0.25
 49
-0.05
  0
LTYPE
  2
DIVIDE
 70
0
  3
Divide __ . . __ . . __ . . __ . . __ . . __
 72
65
 73
6
 40
1.6
 49
1.0
 49
-0.2
 49
0.0
 49
-0.2
 49
0.0
 49
-0.2
  0
LTYPE
  2
DOTX2
 70
0
  3
Dot (2x) .    .    .    .    .    .    .    . 
 72
65
 73
2
 40
0.4
 49
0.0
 49
-0.4
  0
LTYPE
  2
CENTER2
 70
0
  3
Center (.5x) ____ _ ____ _ ____ _ ____ _ ____
 72
65
 73
4
 40
1.0
 49
0.625
 49
-0.125
 49
0.125
 49
-0.125
  0
LTYPE
  2
DOT
 70
0
  3
Dot .  .  .  .  .  .  .  .  .  .  .  .  .  .  .  .
 72
65
 73
2
 40
0.2
 49
0.0
 49
-0.2
  0
LTYPE
  2
PHANTOM2
 70
0
  3
Phantom (.5x) ___ _ _ ___ _ _ ___ _ _ ___ _ _ ___
 72
65
 73
6
 40
1.25
 49
0.625
 49
-0.125
 49
0.125
 49
-0.125
 49
0.125
 49
-0.125
  0
LTYPE
  2
DOT2
 70
0
  3
Dot (.5) . . . . . . . . . . . . . . . . . . . 
 72
65
 73
2
 40
0.1
 49
0.0
 49
-0.1
  0
LTYPE
  2
DASHEDX2
 70
0
  3
Dashed (2x) ____  ____  ____  ____  ____  ____
 72
65
 73
2
 40
1.2
 49
1.0
 49
-0.2
  0
LTYPE
  2
DIVIDEX2
 70
0
  3
Divide (2x) ____  . .  ____  . .  ____  . .  ____
 72
65
 73
6
 40
2.6
 49
2.0
 49
-0.2
 49
0.0
 49
-0.2
 49
0.0
 49
-0.2
  0
ENDTAB
  0
TABLE
  2
LAYER
 70
5
  0
LAYER
  2
TABLEBACKGROUND
 70
0
 62
1
  6
CONTINUOUS
  0
LAYER
  2
TABLEGRID
 70
0
 62
1
  6
CONTINUOUS
  0
LAYER
  2
VIEWPORTS
 70
0
 62
7
  6
CONTINUOUS
  0
LAYER
  2
TABLECONTENT
 70
0
 62
1
  6
CONTINUOUS
  0
LAYER
  2
DIMENSIONS
 70
0
 62
1
  6
CONTINUOUS
  0
ENDTAB
  0
TABLE
  2
STYLE
 70
12
  0
STYLE
  2
ARIAL_BOLD_ITALIC
 70
0
 40
0.0
 41
1.0
 42
1.0
 50
0.0
 71
0
  3
arialbi.ttf
  4

  0
STYLE
  2
ARIAL_BLACK
 70
0
 40
0.0
 41
1.0
 42
1.0
 50
0.0
 71
0
  3
ariblk.ttf
  4

  0
STYLE
  2
STANDARD
 70
0
 40
0.0
 41
1.0
 42
1.0
 50
0.0
 71
0
  3
arial.ttf
  4

  0
STYLE
  2
ARIAL_ITALIC
 70
0
 40
0.0
 41
1.0
 42
1.0
 50
0.0
 71
0
  3
ariali.ttf
  4

  0
STYLE
  2
TIMES
 70
0
 40
0.0
 41
1.0
 42
1.0
 50
0.0
 71
0
  3
times.ttf
  4

  0
STYLE
  2
TIMES_BOLD_ITALIC
 70
0
 40
0.0
 41
1.0
 42
1.0
 50
0.0
 71
0
  3
timesbi.ttf
  4

  0
STYLE
  2
ISOCPEUR_ITALIC
 70
0
 40
0.0
 41
1.0
 42
1.0
 50
0.0
 71
0
  3
isocpeui.ttf
  4

  0
STYLE
  2
ARIAL
 70
0
 40
0.0
 41
1.0
 42
1.0
 50
0.0
 71
0
  3
arial.ttf
  4

  0
STYLE
  2
TIMES_BOLD
 70
0
 40
0.0
 41
1.0
 42
1.0
 50
0.0
 71
0
  3
timesbd.ttf
  4

  0
STYLE
  2
ARIAL_BOLD
 70
0
 40
0.0
 41
1.0
 42
1.0
 50
0.0
 71
0
  3
arialbd.ttf
  4

  0
STYLE
  2
ISOCPEUR
 70
0
 40
0.0
 41
1.0
 42
1.0
 50
0.0
 71
0
  3
isocpeur.ttf
  4

  0
STYLE
  2
TIMES_ITALIC
 70
0
 40
0.0
 41
1.0
 42
1.0
 50
0.0
 71
0
  3
timesi.ttf
  4

  0
ENDTAB
  0
TABLE
  2
VIEW
 70
0
  0
ENDTAB
  0
TABLE
  2
APPID
 70
1
  0
APPID
  2
DXFWRITE
 70
0
  0
ENDTAB
  0
TABLE
  2
VPORT
 70
0
  0
ENDTAB
  0
TABLE
  2
UCS
 70
0
  0
ENDTAB
  0
ENDSEC
  0
SECTION
  2
BLOCKS
  0
ENDSEC
  0
SECTION
  2
ENTITIES
  0
VIEWPORT
  8
VIEWPORTS
 67
1
 10
0.0
 20
0.0
 30
0.0
 40
1.0
 41
1.0
 68
1
 69
1
1001
ACAD
1000
MVIEW
1002
{
1070
16
1010
0.0
1020
0.0
1030
0.0
1010
0.0
1020
0.0
1030
0.0
1040
0.0
1040
1.0
1040
0.0
1040
0.0
1040
50.0
1040
0.0
1040
0.0
1070
0
1070
100
1070
1
1070
3
1070
0
1070
0
1070
0
1070
0
1040
0.0
1040
0.0
1040
0.0
1040
0.1
1040
0.1
1040
0.1
1040
0.1
1070
0
1002
{
1002
}
1002
}
  0
POLYLINE
 62
256
  8
0
 66
1
 10
0.0
 20
0.0
 30
0.0
 70
9
  0
VERTEX
  8
0
 10
0.0
 20
0.0
 30
0.0
  0
VERTEX
  8
0
 10
26.0
 20
0.0
 30
0.0
  0
VERTEX
  8
0
 10
26.0
 20
24.0
 30
0.0
  0
VERTEX
  8
0
 10
0.0
 20
24.0
 30
0.0
  0
SEQEND
  0
SOLID
 62
197
  8
0
 10
0.0
 20
0.0
 30
0.0
 11
26.0
 21
0.0
 31
0.0
 13
26.0
 23
24.0
 33
0.0
 12
0.0
 22
24.0
 32
0.0
  0
POLYLINE
 62
256
  8
0
 66
1
 10
0.0
 20
0.0
 30
0.0
 70
9
  0
VERTEX
  8
0
 10
0.0
 20
24.0
 30
0.0
  0
VERTEX
  8
0
 10
24.0
 20
24.0
 30
0.0
  0
VERTEX
  8
0
 10
24.0
 20
48.0
 30
0.0
  0
VERTEX
  8
0
 10
0.0
 20
48.0
 30
0.0
  0
SEQEND
  0
SOLID
 62
85
  8
0
 10
0.0
 20
24.0
 30
0.0
 11
24.0
 21
24.0
 31
0.0
 13
24.0
 23
48.0
 33
0.0
 12
0.0
 22
48.0
 32
0.0
  0
POLYLINE
 62
256
  8
0
 66
1
 10
0.0
 20
0.0
 30
0.0
 70
9
  0
VERTEX
  8
0
 10
26.0
 20
0.0
 30
0.0
  0
VERTEX
  8
0
 10
50.0
 20
0.0
 30
0.0
  0
VERTEX
  8
0
 10
50.0
 20
18.0
 30
0.0
  0
VERTEX
  8
0
 10
26.0
 20
18.0
 30
0.0
  0
SEQEND
  0
SOLID
 62
49
  8
0
 10
26.0
 20
0.0
 30
0.0
 11
50.0
 21
0.0
 31
0.0
 13
50.0
 23
18.0
 33
0.0
 12
26.0
 22
18.0
 32
0.0
  0
POLYLINE
 62
256
  8
0
 66
1
 10
0.0
 20
0.0
 30
0.0
 70
9
  0
VERTEX
  8
0
 10
26.0
 20
18.0
 30
0.0
  0
VERTEX
  8
0
 10
44.0
 20
18.0
 30
0.0
  0
VERTEX
  8
0
 10
44.0
 20
40.0
 30
0.0
  0
VERTEX
  8
0
 10
26.0
 20
40.0
 30
0.0
  0
SEQEND
  0
SOLID
 62
119
  8
0
 10
26.0
 20
18.0
 30
0.0
 11
44.0
 21
18.0
 31
0.0
 13
44.0
 23
40.0
 33
0.0
 12
26.0
 22
40.0
 32
0.0
  0
POLYLINE
 62
256
  8
0
 66
1
 10
0.0
 20
0.0
 30
0.0
 70
9
  0
VERTEX
  8
0
 10
0.0
 20
48.0
 30
0.0
  0
VERTEX
  8
0
 10
28.0
 20
48.0
 30
0.0
  0
VERTEX
  8
0
 10
28.0
 20
62.0
 30
0.0
  0
VERTEX
  8
0
 10
0.0
 20
62.0
 30
0.0
  0
SEQEND
  0
SOLID
 62
174
  8
0
 10
0.0
 20
48.0
 30
0.0
 11
28.0
 21
48.0
 31
0.0
 13
28.0
 23
62.0
 33
0.0
 12
0.0
 22
62.0
 32
0.0
  0
POLYLINE
 62
256
  8
0
 66
1
 10
0.0
 20
0.0
 30
0.0
 70
9
  0
VERTEX
  8
0
 10
44.0
 20
18.0
 30
0.0
  0
VERTEX
  8
0
 10
70.0
 20
18.0
 30
0.0
  0
VERTEX
  8
0
 10
70.0
 20
32.0
 30
0.0
  0
VERTEX
  8
0
 10
44.0
 20
32.0
 30
0.0
  0
SEQEND
  0
SOLID
 62
55
  8
0
 10
44.0
 20
18.0
 30
0.0
 11
70.0
 21
18.0
 31
0.0
 13
70.0
 23
32.0
 33
0.0
 12
44.0
 22
32.0
 32
0.0
  0
POLYLINE
 62
256
  8
0
 66
1
 10
0.0
 20
0.0
 30
0.0
 70
9
  0
VERTEX
  8
0
 10
28.0
 20
40.0
 30
0.0
  0
VERTEX
  8
0
 10
38.0
 20
40.0
 30
0.0
  0
VERTEX
  8
0
 10
38.0
 20
66.0
 30
0.0
  0
VERTEX
  8
0
 10
28.0
 20
66.0
 30
0.0
  0
SEQEND
  0
SOLID
 62
118
  8
0
 10
28.0
 20
40.0
 30
0.0
 11
38.0
 21
40.0
 31
0.0
 13
38.0
 23
66.0
 33
0.0
 12
28.0
 22
66.0
 32
0.0
  0
POLYLINE
 62
256
  8
0
 66
1
 10
0.0
 20
0.0
 30
0.0
 70
9
  0
VERTEX
  8
0
 10
50.0
 20
0.0
 30
0.0
  0
VERTEX
  8
0
 10
66.0
 20
0.0
 30
0.0
  0
VERTEX
  8
0
 10
66.0
 20
14.0
 30
0.0
  0
VERTEX
  8
0
 10
50.0
 20
14.0
 30
0.0
  0
SEQEND
  0
SOLID
 62
230
  8
0
 10
50.0
 20
0.0
 30
0.0
 11
66.0
 21
0.0
 31
0.0
 13
66.0
 23
14.0
 33
0.0
 12
50.0
 22
14.0
 32
0.0
  0
POLYLINE
 62
256
  8
0
 66
1
 10
0.0
 20
0.0
 30
0.0
 70
9
  0
VERTEX
  8
0
 10
44.0
 20
32.0
 30
0.0
  0
VERTEX
  8
0
 10
52.0
 20
32.0
 30
0.0
  0
VERTEX
  8
0
 10
52.0
 20
58.0
 30
0.0
  0
VERTEX
  8
0
 10
44.0
 20
58.0
 30
0.0
  0
SEQEND
  0
SOLID
 62
97
  8
0
 10
44.0
 20
32.0
 30
0.0
 11
52.0
 21
32.0
 31
0.0
 13
52.0
 23
58.0
 33
0.0
 12
44.0
 22
58.0
 32
0.0
  0
POLYLINE
 62
256
  8
0
 66
1
 10
0.0
 20
0.0
 30
0.0
 70
9
  0
VERTEX
  8
0
 10
0.0
 20
62.0
 30
0.0
  0
VERTEX
  8
0
 10
20.0
 20
62.0
 30
0.0
  0
VERTEX
  8
0
 10
20.0
 20
72.0
 30
0.0
  0
VERTEX
  8
0
 10
0.0
 20
72.0
 30
0.0
  0
SEQEND
  0
SOLID
 62
113
  8
0
 10
0.0
 20
62.0
 30
0.0
 11
20.0
 21
62.0
 31
0.0
 13
20.0
 23
72.0
 33
0.0
 12
0.0
 22
72.0
 32
0.0
  0
POLYLINE
 62
256
  8
0
 66
1
 10
0.0
 20
0.0
 30
0.0
 70
9
  0
VERTEX
  8
0
 10
52.0
 20
32.0
 30
0.0
  0
VERTEX
  8
0
 10
76.0
 20
32.0
 30
0.0
  0
VERTEX
  8
0
 10
76.0
 20
40.0
 30
0.0
  0
VERTEX
  8
0
 10
52.0
 20
40.0
 30
0.0
  0
SEQEND
  0
SOLID
 62
141
  8
0
 10
52.0
 20
32.0
 30
0.0
 11
76.0
 21
32.0
 31
0.0
 13
76.0
 23
40.0
 33
0.0
 12
52.0
 22
40.0
 32
0.0
  0
POLYLINE
 62
256
  8
0
 66
1
 10
0.0
 20
0.0
 30
0.0
 70
9
  0
VERTEX
  8
0
 10
70.0
 20
0.0
 30
0.0
  0
VERTEX
  8
0
 10
78.0
 20
0.0
 30
0.0
  0
VERTEX
  8
0
 10
78.0
 20
22.0
 30
0.0
  0
VERTEX
  8
0
 10
70.0
 20
22.0
 30
0.0
  0
SEQEND
  0
SOLID
 62
39
  8
0
 10
70.0
 20
0.0
 30
0.0
 11
78.0
 21
0.0
 31
0.0
 13
78.0
 23
22.0
 33
0.0
 12
70.0
 22
22.0
 32
0.0
  0
POLYLINE
 62
256
  8
0
 66
1
 10
0.0
 20
0.0
 30
0.0
 70
9
  0
VERTEX
  8
0
 10
52.0
 20
40.0
 30
0.0
  0
VERTEX
  8
0
 10
70.0
 20
40.0
 30
0.0
  0
VERTEX
  8
0
 10
70.0
 20
48.0
 30
0.0
  0
VERTEX
  8
0
 10
52.0
 20
48.0
 30
0.0
  0
SEQEND
  0
SOLID
 62
147
  8
0
 10
52.0
 20
40.0
 30
0.0
 11
70.0
 21
40.0
 31
0.0
 13
70.0
 23
48.0
 33
0.0
 12
52.0
 22
48.0
 32
0.0
  0
POLYLINE
 62
256
  8
0
 66
1
 10
0.0
 20
0.0
 30
0.0
 70
9
  0
VERTEX
  8
0
 10
20.0
 20
66.0
 30
0.0
  0
VERTEX
  8
0
 10
40.0
 20
66.0
 30
0.0
  0
VERTEX
  8
0
 10
40.0
 20
72.0
 30
0.0
  0
VERTEX
  8
0
 10
20.0
 20
72.0
 30
0.0
  0
SEQEND
  0
SOLID
 62
53
  8
0
 10
20.0
 20
66.0
 30
0.0
 11
40.0
 21
66.0
 31
0.0
 13
40.0
 23
72.0
 33
0.0
 12
20.0
 22
72.0
 32
0.0
  0
POLYLINE
 62
256
  8
0
 66
1
 10
0.0
 20
0.0
 30
0.0
 70
9
  0
VERTEX
  8
0
 10
40.0
 20
40.0
 30
0.0
  0
VERTEX
  8
0
 10
44.0
 20
40.0
 30
0.0
  0
VERTEX
  8
0
 10
44.0
 20
68.0
 30
0.0
  0
VERTEX
  8
0
 10
40.0
 20
68.0
 30
0.0
  0
SEQEND
  0
SOLID
 62
146
  8
0
 10
40.0
 20
40.0
 30
0.0
 11
44.0
 21
40.0
 31
0.0
 13
44.0
 23
68.0
 33
0.0
 12
40.0
 22
68.0
 32
0.0
  0
POLYLINE
 62
256
  8
0
 66
1
 10
0.0
 20
0.0
 30
0.0
 70
9
  0
VERTEX
  8
0
 10
0.0
 20
72.0
 30
0.0
  0
VERTEX
  8
0
 10
10.0
 20
72.0
 30
0.0
  0
VERTEX
  8
0
 10
10.0
 20
80.0
 30
0.0
  0
VERTEX
  8
0
 10
0.0
 20
80.0
 30
0.0
  0
SEQEND
  0
SOLID
 62
120
  8
0
 10
0.0
 20
72.0
 30
0.0
 11
10.0
 21
72.0
 31
0.0
 13
10.0
 23
80.0
 33
0.0
 12
0.0
 22
80.0
 32
0.0
  0
POLYLINE
 62
256
  8
0
 66
1
 10
0.0
 20
0.0
 30
0.0
 70
9
  0
VERTEX
  8
0
 10
52.0
 20
48.0
 30
0.0
  0
VERTEX
  8
0
 10
60.0
 20
48.0
 30
0.0
  0
VERTEX
  8
0
 10
60.0
 20
56.0
 30
0.0
  0
VERTEX
  8
0
 10
52.0
 20
56.0
 30
0.0
  0
SEQEND
  0
SOLID
 62
6
  8
0
 10
52.0
 20
48.0
 30
0.0
 11
60.0
 21
48.0
 31
0.0
 13
60.0
 23
56.0
 33
0.0
 12
52.0
 22
56.0
 32
0.0
  0
POLYLINE
 62
256
  8
0
 66
1
 10
0.0
 20
0.0
 30
0.0
 70
9
  0
VERTEX
  8
0
 10
50.0
 20
14.0
 30
0.0
  0
VERTEX
  8
0
 10
70.0
 20
14.0
 30
0.0
  0
VERTEX
  8
0
 10
70.0
 20
16.0
 30
0.0
  0
VERTEX
  8
0
 10
50.0
 20
16.0
 30
0.0
  0
SEQEND
  0
SOLID
 62
61
  8
0
 10
50.0
 20
14.0
 30
0.0
 11
70.0
 21
14.0
 31
0.0
 13
70.0
 23
16.0
 33
0.0
 12
50.0
 22
16.0
 32
0.0
  0
POLYLINE
 62
256
  8
0
 66
1
 10
0.0
 20
0.0
 30
0.0
 70
9
  0
VERTEX
  8
0
 10
10.0
 20
72.0
 30
0.0
  0
VERTEX
  8
0
 10
20.0
 20
72.0
 30
0.0
  0
VERTEX
  8
0
 10
20.0
 20
76.0
 30
0.0
  0
VERTEX
  8
0
 10
10.0
 20
76.0
 30
0.0
  0
SEQEND
  0
SOLID
 62
28
  8
0
 10
10.0
 20
72.0
 30
0.0
 11
20.0
 21
72.0
 31
0.0
 13
20.0
 23
76.0
 33
0.0
 12
10.0
 22
76.0
 32
0.0
  0
POLYLINE
 62
256
  8
0
 66
1
 10
0.0
 20
0.0
 30
0.0
 70
9
  0
VERTEX
  8
0
 10
20.0
 20
62.0
 30
0.0
  0
VERTEX
  8
0
 10
28.0
 20
62.0
 30
0.0
  0
VERTEX
  8
0
 10
28.0
 20
66.0
 30
0.0
  0
VERTEX
  8
0
 10
20.0
 20
66.0
 30
0.0
  0
SEQEND
  0
SOLID
 62
221
  8
0
 10
20.0
 20
62.0
 30
0.0
 11
28.0
 21
62.0
 31
0.0
 13
28.0
 23
66.0
 33
0.0
 12
20.0
 22
66.0
 32
0.0
  0
ENDSEC
  0
EOF
