  0
SECTION
  2
HEADER
  9
$INSBASE
 10
0.0
 20
0.0
 30
0.0
  9
$ANGDIR
 70
0
  9
$EXTMAX
 10
100.0
 20
100.0
 30
0.0
  9
$EXTMIN
 10
0.0
 20
0.0
 30
0.0
  9
$AUNITS
 70
0
  9
$ACADVER
  1
AC1009
  9
$UNITMODE
 70
0
  9
$ANGBASE
 50
0.0
  0
ENDSEC
  0
SECTION
  2
TABLES
  0
TABLE
  2
LTYPE
 70
19
  0
LTYPE
  2
DIVIDEX2
 70
0
  3
Divide (2x) ____  . .  ____  . .  ____  . .  ____
 72
65
 73
6
 40
2.6
 49
2.0
 49
-0.2
 49
0.0
 49
-0.2
 49
0.0
 49
-0.2
  0
LTYPE
  2
DASHED2
 70
0
  3
Dashed (.5x) _ _ _ _ _ _ _ _ _ _ _ _ _ _
 72
65
 73
2
 40
0.3
 49
0.25
 49
-0.05
  0
LTYPE
  2
CENTERX2
 70
0
  3
Center (2x) ________  __  ________  __  ________
 72
65
 73
4
 40
3.5
 49
2.5
 49
-0.25
 49
0.5
 49
-0.25
  0
LTYPE
  2
PHANTOM
 70
0
  3
Phantom ______  __  __  ______  __  __  ______
 72
65
 73
6
 40
2.5
 49
1.25
 49
-0.25
 49
0.25
 49
-0.25
 49
0.25
 49
-0.25
  0
LTYPE
  2
DOT
 70
0
  3
Dot .  .  .  .  .  .  .  .  .  .  .  .  .  .  .  .
 72
65
 73
2
 40
0.2
 49
0.0
 49
-0.2
  0
LTYPE
  2
CONTINUOUS
 70
0
  3
Solid
 72
65
 73
0
 40
0.0
  0
LTYPE
  2
DIVIDE2
 70
0
  3
Divide(.5x) _ . _ . _ . _ . _ . _ . _ . _
 72
65
 73
6
 40
0.8
 49
0.5
 49
-0.1
 49
0.0
 49
-0.1
 49
0.0
 49
-0.1
  0
LTYPE
  2
DASHDOT
 70
0
  3
Dash dot __ . __ . __ . __ . __ . __ . __ . __
 72
65
 73
4
 40
1.4
 49
1.0
 49
-0.2
 49
0.0
 49
-0.2
  0
LTYPE
  2
PHANTOM2
 70
0
  3
Phantom (.5x) ___ _ _ ___ _ _ ___ _ _ ___ _ _ ___
 72
65
 73
6
 40
1.25
 49
0.625
 49
-0.125
 49
0.125
 49
-0.125
 49
0.125
 49
-0.125
  0
LTYPE
  2
DASHEDX2
 70
0
  3
Dashed (2x) ____  ____  ____  ____  ____  ____
 72
65
 73
2
 40
1.2
 49
1.0
 49
-0.2
  0
LTYPE
  2
DASHDOTX2
 70
0
  3
Dash dot (2x) ____  .  ____  .  ____  .  ____
 72
65
 73
4
 40
2.4
 49
2.0
 49
-0.2
 49
0.0
 49
-0.2
  0
LTYPE
  2
CENTER
 70
0
  3
Center ____ _ ____ _ ____ _ ____ _ ____ _ ____
 72
65
 73
4
 40
2.0
 49
1.25
 49
-0.25
 49
0.25
 49
-0.25
  0
LTYPE
  2
DOTX2
 70
0
  3
Dot (2x) .    .    .    .    .    .    .    . 
 72
65
 73
2
 40
0.4
 49
0.0
 49
-0.4
  0
LTYPE
  2
DIVIDE
 70
0
  3
Divide __ . . __ . . __ . . __ . . __ . . __
 72
65
 73
6
 40
1.6
 49
1.0
 49
-0.2
 49
0.0
 49
-0.2
 49
0.0
 49
-0.2
  0
LTYPE
  2
CENTER2
 70
0
  3
Center (.5x) ____ _ ____ _ ____ _ ____ _ ____
 72
65
 73
4
 40
1.0
 49
0.625
 49
-0.125
 49
0.125
 49
-0.125
  0
LTYPE
  2
DASHDOT2
 70
0
  3
Dash dot (.5x) _ . _ . _ . _ . _ . _ . _ . _
 72
65
 73
4
 40
0.7
 49
0.5
 49
-0.1
 49
0.0
 49
-0.1
  0
LTYPE
  2
DASHED
 70
0
  3
Dashed __ __ __ __ __ __ __ __ __ __ __ __ __ _
 72
65
 73
2
 40
0.6
 49
0.5
 49
-0.1
  0
LTYPE
  2
DOT2
 70
0
  3
Dot (.5) . . . . . . . . . . . . . . . . . . . 
 72
65
 73
2
 40
0.1
 49
0.0
 49
-0.1
  0
LTYPE
  2
PHANTOMX2
 70
0
  3
Phantom (2x)____________    ____    ____    ____________
 72
65
 73
6
 40
4.25
 49
2.5
 49
-0.25
 49
0.5
 49
-0.25
 49
0.5
 49
-0.25
  0
ENDTAB
  0
TABLE
  2
LAYER
 70
5
  0
LAYER
  2
VIEWPORTS
 70
0
 62
7
  6
CONTINUOUS
  0
LAYER
  2
TABLECONTENT
 70
0
 62
1
  6
CONTINUOUS
  0
LAYER
  2
DIMENSIONS
 70
0
 62
1
  6
CONTINUOUS
  0
LAYER
  2
TABLEGRID
 70
0
 62
1
  6
CONTINUOUS
  0
LAYER
  2
TABLEBACKGROUND
 70
0
 62
1
  6
CONTINUOUS
  0
ENDTAB
  0
TABLE
  2
STYLE
 70
12
  0
STYLE
  2
ARIAL_BOLD_ITALIC
 70
0
 40
0.0
 41
1.0
 42
1.0
 50
0.0
 71
0
  3
arialbi.ttf
  4

  0
STYLE
  2
TIMES_BOLD
 70
0
 40
0.0
 41
1.0
 42
1.0
 50
0.0
 71
0
  3
timesbd.ttf
  4

  0
STYLE
  2
ISOCPEUR_ITALIC
 70
0
 40
0.0
 41
1.0
 42
1.0
 50
0.0
 71
0
  3
isocpeui.ttf
  4

  0
STYLE
  2
ARIAL_BOLD
 70
0
 40
0.0
 41
1.0
 42
1.0
 50
0.0
 71
0
  3
arialbd.ttf
  4

  0
STYLE
  2
TIMES_BOLD_ITALIC
 70
0
 40
0.0
 41
1.0
 42
1.0
 50
0.0
 71
0
  3
timesbi.ttf
  4

  0
STYLE
  2
ARIAL_ITALIC
 70
0
 40
0.0
 41
1.0
 42
1.0
 50
0.0
 71
0
  3
ariali.ttf
  4

  0
STYLE
  2
ISOCPEUR
 70
0
 40
0.0
 41
1.0
 42
1.0
 50
0.0
 71
0
  3
isocpeur.ttf
  4

  0
STYLE
  2
TIMES_ITALIC
 70
0
 40
0.0
 41
1.0
 42
1.0
 50
0.0
 71
0
  3
timesi.ttf
  4

  0
STYLE
  2
ARIAL_BLACK
 70
0
 40
0.0
 41
1.0
 42
1.0
 50
0.0
 71
0
  3
ariblk.ttf
  4

  0
STYLE
  2
ARIAL
 70
0
 40
0.0
 41
1.0
 42
1.0
 50
0.0
 71
0
  3
arial.ttf
  4

  0
STYLE
  2
TIMES
 70
0
 40
0.0
 41
1.0
 42
1.0
 50
0.0
 71
0
  3
times.ttf
  4

  0
STYLE
  2
STANDARD
 70
0
 40
0.0
 41
1.0
 42
1.0
 50
0.0
 71
0
  3
arial.ttf
  4

  0
ENDTAB
  0
TABLE
  2
VIEW
 70
0
  0
ENDTAB
  0
TABLE
  2
APPID
 70
1
  0
APPID
  2
DXFWRITE
 70
0
  0
ENDTAB
  0
TABLE
  2
VPORT
 70
0
  0
ENDTAB
  0
TABLE
  2
UCS
 70
0
  0
ENDTAB
  0
ENDSEC
  0
SECTION
  2
BLOCKS
  0
ENDSEC
  0
SECTION
  2
ENTITIES
  0
VIEWPORT
  8
VIEWPORTS
 67
1
 10
0.0
 20
0.0
 30
0.0
 40
1.0
 41
1.0
 68
1
 69
1
1001
ACAD
1000
MVIEW
1002
{
1070
16
1010
0.0
1020
0.0
1030
0.0
1010
0.0
1020
0.0
1030
0.0
1040
0.0
1040
1.0
1040
0.0
1040
0.0
1040
50.0
1040
0.0
1040
0.0
1070
0
1070
100
1070
1
1070
3
1070
0
1070
0
1070
0
1070
0
1040
0.0
1040
0.0
1040
0.0
1040
0.1
1040
0.1
1040
0.1
1040
0.1
1070
0
1002
{
1002
}
1002
}
  0
POLYLINE
 62
256
  8
0
 66
1
 10
0.0
 20
0.0
 30
0.0
 70
9
  0
VERTEX
  8
0
 10
-245.0
 20
-195.0
 30
0.0
  0
VERTEX
  8
0
 10
245.0
 20
-195.0
 30
0.0
  0
VERTEX
  8
0
 10
245.0
 20
195.0
 30
0.0
  0
VERTEX
  8
0
 10
-245.0
 20
195.0
 30
0.0
  0
SEQEND
  0
SOLID
 62
216
  8
0
 10
-245.0
 20
-195.0
 30
0.0
 11
245.0
 21
-195.0
 31
0.0
 13
245.0
 23
195.0
 33
0.0
 12
-245.0
 22
195.0
 32
0.0
  0
POLYLINE
 62
256
  8
0
 66
1
 10
0.0
 20
0.0
 30
0.0
 70
9
  0
VERTEX
  8
0
 10
-168.0
 20
-110.0
 30
0.0
  0
VERTEX
  8
0
 10
168.0
 20
-110.0
 30
0.0
  0
VERTEX
  8
0
 10
168.0
 20
110.0
 30
0.0
  0
VERTEX
  8
0
 10
-168.0
 20
110.0
 30
0.0
  0
SEQEND
  0
SOLID
 62
189
  8
0
 10
-168.0
 20
-110.0
 30
0.0
 11
168.0
 21
-110.0
 31
0.0
 13
168.0
 23
110.0
 33
0.0
 12
-168.0
 22
110.0
 32
0.0
  0
POLYLINE
 62
256
  8
0
 66
1
 10
0.0
 20
0.0
 30
0.0
 70
9
  0
VERTEX
  8
0
 10
-247.0
 20
-320.0
 30
0.0
  0
VERTEX
  8
0
 10
247.0
 20
-320.0
 30
0.0
  0
VERTEX
  8
0
 10
247.0
 20
320.0
 30
0.0
  0
VERTEX
  8
0
 10
-247.0
 20
320.0
 30
0.0
  0
SEQEND
  0
SOLID
 62
56
  8
0
 10
-247.0
 20
-320.0
 30
0.0
 11
247.0
 21
-320.0
 31
0.0
 13
247.0
 23
320.0
 33
0.0
 12
-247.0
 22
320.0
 32
0.0
  0
POLYLINE
 62
256
  8
0
 66
1
 10
0.0
 20
0.0
 30
0.0
 70
9
  0
VERTEX
  8
0
 10
-403.0
 20
-170.0
 30
0.0
  0
VERTEX
  8
0
 10
403.0
 20
-170.0
 30
0.0
  0
VERTEX
  8
0
 10
403.0
 20
170.0
 30
0.0
  0
VERTEX
  8
0
 10
-403.0
 20
170.0
 30
0.0
  0
SEQEND
  0
SOLID
 62
19
  8
0
 10
-403.0
 20
-170.0
 30
0.0
 11
403.0
 21
-170.0
 31
0.0
 13
403.0
 23
170.0
 33
0.0
 12
-403.0
 22
170.0
 32
0.0
  0
POLYLINE
 62
256
  8
0
 66
1
 10
0.0
 20
0.0
 30
0.0
 70
9
  0
VERTEX
  8
0
 10
-333.0
 20
-166.0
 30
0.0
  0
VERTEX
  8
0
 10
333.0
 20
-166.0
 30
0.0
  0
VERTEX
  8
0
 10
333.0
 20
166.0
 30
0.0
  0
VERTEX
  8
0
 10
-333.0
 20
166.0
 30
0.0
  0
SEQEND
  0
SOLID
 62
186
  8
0
 10
-333.0
 20
-166.0
 30
0.0
 11
333.0
 21
-166.0
 31
0.0
 13
333.0
 23
166.0
 33
0.0
 12
-333.0
 22
166.0
 32
0.0
  0
POLYLINE
 62
256
  8
0
 66
1
 10
0.0
 20
0.0
 30
0.0
 70
9
  0
VERTEX
  8
0
 10
-246.0
 20
-461.0
 30
0.0
  0
VERTEX
  8
0
 10
246.0
 20
-461.0
 30
0.0
  0
VERTEX
  8
0
 10
246.0
 20
461.0
 30
0.0
  0
VERTEX
  8
0
 10
-246.0
 20
461.0
 30
0.0
  0
SEQEND
  0
SOLID
 62
93
  8
0
 10
-246.0
 20
-461.0
 30
0.0
 11
246.0
 21
-461.0
 31
0.0
 13
246.0
 23
461.0
 33
0.0
 12
-246.0
 22
461.0
 32
0.0
  0
POLYLINE
 62
256
  8
0
 66
1
 10
0.0
 20
0.0
 30
0.0
 70
9
  0
VERTEX
  8
0
 10
-424.0
 20
-415.0
 30
0.0
  0
VERTEX
  8
0
 10
424.0
 20
-415.0
 30
0.0
  0
VERTEX
  8
0
 10
424.0
 20
415.0
 30
0.0
  0
VERTEX
  8
0
 10
-424.0
 20
415.0
 30
0.0
  0
SEQEND
  0
SOLID
 62
188
  8
0
 10
-424.0
 20
-415.0
 30
0.0
 11
424.0
 21
-415.0
 31
0.0
 13
424.0
 23
415.0
 33
0.0
 12
-424.0
 22
415.0
 32
0.0
  0
POLYLINE
 62
256
  8
0
 66
1
 10
0.0
 20
0.0
 30
0.0
 70
9
  0
VERTEX
  8
0
 10
-345.0
 20
-29.0
 30
0.0
  0
VERTEX
  8
0
 10
345.0
 20
-29.0
 30
0.0
  0
VERTEX
  8
0
 10
345.0
 20
29.0
 30
0.0
  0
VERTEX
  8
0
 10
-345.0
 20
29.0
 30
0.0
  0
SEQEND
  0
SOLID
 62
122
  8
0
 10
-345.0
 20
-29.0
 30
0.0
 11
345.0
 21
-29.0
 31
0.0
 13
345.0
 23
29.0
 33
0.0
 12
-345.0
 22
29.0
 32
0.0
  0
POLYLINE
 62
256
  8
0
 66
1
 10
0.0
 20
0.0
 30
0.0
 70
9
  0
VERTEX
  8
0
 10
-449.0
 20
-152.0
 30
0.0
  0
VERTEX
  8
0
 10
449.0
 20
-152.0
 30
0.0
  0
VERTEX
  8
0
 10
449.0
 20
152.0
 30
0.0
  0
VERTEX
  8
0
 10
-449.0
 20
152.0
 30
0.0
  0
SEQEND
  0
SOLID
 62
33
  8
0
 10
-449.0
 20
-152.0
 30
0.0
 11
449.0
 21
-152.0
 31
0.0
 13
449.0
 23
152.0
 33
0.0
 12
-449.0
 22
152.0
 32
0.0
  0
POLYLINE
 62
256
  8
0
 66
1
 10
0.0
 20
0.0
 30
0.0
 70
9
  0
VERTEX
  8
0
 10
-388.0
 20
-454.0
 30
0.0
  0
VERTEX
  8
0
 10
388.0
 20
-454.0
 30
0.0
  0
VERTEX
  8
0
 10
388.0
 20
454.0
 30
0.0
  0
VERTEX
  8
0
 10
-388.0
 20
454.0
 30
0.0
  0
SEQEND
  0
SOLID
 62
143
  8
0
 10
-388.0
 20
-454.0
 30
0.0
 11
388.0
 21
-454.0
 31
0.0
 13
388.0
 23
454.0
 33
0.0
 12
-388.0
 22
454.0
 32
0.0
  0
POLYLINE
 62
256
  8
0
 66
1
 10
0.0
 20
0.0
 30
0.0
 70
9
  0
VERTEX
  8
0
 10
-59.0
 20
-249.0
 30
0.0
  0
VERTEX
  8
0
 10
59.0
 20
-249.0
 30
0.0
  0
VERTEX
  8
0
 10
59.0
 20
249.0
 30
0.0
  0
VERTEX
  8
0
 10
-59.0
 20
249.0
 30
0.0
  0
SEQEND
  0
SOLID
 62
172
  8
0
 10
-59.0
 20
-249.0
 30
0.0
 11
59.0
 21
-249.0
 31
0.0
 13
59.0
 23
249.0
 33
0.0
 12
-59.0
 22
249.0
 32
0.0
  0
POLYLINE
 62
256
  8
0
 66
1
 10
0.0
 20
0.0
 30
0.0
 70
9
  0
VERTEX
  8
0
 10
-129.0
 20
-101.0
 30
0.0
  0
VERTEX
  8
0
 10
129.0
 20
-101.0
 30
0.0
  0
VERTEX
  8
0
 10
129.0
 20
101.0
 30
0.0
  0
VERTEX
  8
0
 10
-129.0
 20
101.0
 30
0.0
  0
SEQEND
  0
SOLID
 62
5
  8
0
 10
-129.0
 20
-101.0
 30
0.0
 11
129.0
 21
-101.0
 31
0.0
 13
129.0
 23
101.0
 33
0.0
 12
-129.0
 22
101.0
 32
0.0
  0
POLYLINE
 62
256
  8
0
 66
1
 10
0.0
 20
0.0
 30
0.0
 70
9
  0
VERTEX
  8
0
 10
-420.0
 20
-188.0
 30
0.0
  0
VERTEX
  8
0
 10
420.0
 20
-188.0
 30
0.0
  0
VERTEX
  8
0
 10
420.0
 20
188.0
 30
0.0
  0
VERTEX
  8
0
 10
-420.0
 20
188.0
 30
0.0
  0
SEQEND
  0
SOLID
 62
32
  8
0
 10
-420.0
 20
-188.0
 30
0.0
 11
420.0
 21
-188.0
 31
0.0
 13
420.0
 23
188.0
 33
0.0
 12
-420.0
 22
188.0
 32
0.0
  0
POLYLINE
 62
256
  8
0
 66
1
 10
0.0
 20
0.0
 30
0.0
 70
9
  0
VERTEX
  8
0
 10
-135.0
 20
-156.0
 30
0.0
  0
VERTEX
  8
0
 10
135.0
 20
-156.0
 30
0.0
  0
VERTEX
  8
0
 10
135.0
 20
156.0
 30
0.0
  0
VERTEX
  8
0
 10
-135.0
 20
156.0
 30
0.0
  0
SEQEND
  0
SOLID
 62
26
  8
0
 10
-135.0
 20
-156.0
 30
0.0
 11
135.0
 21
-156.0
 31
0.0
 13
135.0
 23
156.0
 33
0.0
 12
-135.0
 22
156.0
 32
0.0
  0
POLYLINE
 62
256
  8
0
 66
1
 10
0.0
 20
0.0
 30
0.0
 70
9
  0
VERTEX
  8
0
 10
-385.0
 20
-378.0
 30
0.0
  0
VERTEX
  8
0
 10
385.0
 20
-378.0
 30
0.0
  0
VERTEX
  8
0
 10
385.0
 20
378.0
 30
0.0
  0
VERTEX
  8
0
 10
-385.0
 20
378.0
 30
0.0
  0
SEQEND
  0
SOLID
 62
234
  8
0
 10
-385.0
 20
-378.0
 30
0.0
 11
385.0
 21
-378.0
 31
0.0
 13
385.0
 23
378.0
 33
0.0
 12
-385.0
 22
378.0
 32
0.0
  0
POLYLINE
 62
256
  8
0
 66
1
 10
0.0
 20
0.0
 30
0.0
 70
9
  0
VERTEX
  8
0
 10
-367.0
 20
-323.0
 30
0.0
  0
VERTEX
  8
0
 10
367.0
 20
-323.0
 30
0.0
  0
VERTEX
  8
0
 10
367.0
 20
323.0
 30
0.0
  0
VERTEX
  8
0
 10
-367.0
 20
323.0
 30
0.0
  0
SEQEND
  0
SOLID
 62
37
  8
0
 10
-367.0
 20
-323.0
 30
0.0
 11
367.0
 21
-323.0
 31
0.0
 13
367.0
 23
323.0
 33
0.0
 12
-367.0
 22
323.0
 32
0.0
  0
POLYLINE
 62
256
  8
0
 66
1
 10
0.0
 20
0.0
 30
0.0
 70
9
  0
VERTEX
  8
0
 10
-80.0
 20
-86.0
 30
0.0
  0
VERTEX
  8
0
 10
80.0
 20
-86.0
 30
0.0
  0
VERTEX
  8
0
 10
80.0
 20
86.0
 30
0.0
  0
VERTEX
  8
0
 10
-80.0
 20
86.0
 30
0.0
  0
SEQEND
  0
SOLID
 62
177
  8
0
 10
-80.0
 20
-86.0
 30
0.0
 11
80.0
 21
-86.0
 31
0.0
 13
80.0
 23
86.0
 33
0.0
 12
-80.0
 22
86.0
 32
0.0
  0
POLYLINE
 62
256
  8
0
 66
1
 10
0.0
 20
0.0
 30
0.0
 70
9
  0
VERTEX
  8
0
 10
-451.0
 20
-325.0
 30
0.0
  0
VERTEX
  8
0
 10
451.0
 20
-325.0
 30
0.0
  0
VERTEX
  8
0
 10
451.0
 20
325.0
 30
0.0
  0
VERTEX
  8
0
 10
-451.0
 20
325.0
 30
0.0
  0
SEQEND
  0
SOLID
 62
231
  8
0
 10
-451.0
 20
-325.0
 30
0.0
 11
451.0
 21
-325.0
 31
0.0
 13
451.0
 23
325.0
 33
0.0
 12
-451.0
 22
325.0
 32
0.0
  0
POLYLINE
 62
256
  8
0
 66
1
 10
0.0
 20
0.0
 30
0.0
 70
9
  0
VERTEX
  8
0
 10
-66.0
 20
-246.0
 30
0.0
  0
VERTEX
  8
0
 10
66.0
 20
-246.0
 30
0.0
  0
VERTEX
  8
0
 10
66.0
 20
246.0
 30
0.0
  0
VERTEX
  8
0
 10
-66.0
 20
246.0
 30
0.0
  0
SEQEND
  0
SOLID
 62
251
  8
0
 10
-66.0
 20
-246.0
 30
0.0
 11
66.0
 21
-246.0
 31
0.0
 13
66.0
 23
246.0
 33
0.0
 12
-66.0
 22
246.0
 32
0.0
  0
POLYLINE
 62
256
  8
0
 66
1
 10
0.0
 20
0.0
 30
0.0
 70
9
  0
VERTEX
  8
0
 10
-493.0
 20
-169.0
 30
0.0
  0
VERTEX
  8
0
 10
493.0
 20
-169.0
 30
0.0
  0
VERTEX
  8
0
 10
493.0
 20
169.0
 30
0.0
  0
VERTEX
  8
0
 10
-493.0
 20
169.0
 30
0.0
  0
SEQEND
  0
SOLID
 62
46
  8
0
 10
-493.0
 20
-169.0
 30
0.0
 11
493.0
 21
-169.0
 31
0.0
 13
493.0
 23
169.0
 33
0.0
 12
-493.0
 22
169.0
 32
0.0
  0
POLYLINE
 62
256
  8
0
 66
1
 10
0.0
 20
0.0
 30
0.0
 70
9
  0
VERTEX
  8
0
 10
0.0
 20
461.0
 30
0.0
  0
VERTEX
  8
0
 10
132.0
 20
461.0
 30
0.0
  0
VERTEX
  8
0
 10
132.0
 20
953.0
 30
0.0
  0
VERTEX
  8
0
 10
0.0
 20
953.0
 30
0.0
  0
SEQEND
  0
SOLID
 62
14
  8
0
 10
0.0
 20
461.0
 30
0.0
 11
132.0
 21
461.0
 31
0.0
 13
132.0
 23
953.0
 33
0.0
 12
0.0
 22
953.0
 32
0.0
  0
POLYLINE
 62
256
  8
0
 66
1
 10
0.0
 20
0.0
 30
0.0
 70
9
  0
VERTEX
  8
0
 10
0.0
 20
953.0
 30
0.0
  0
VERTEX
  8
0
 10
118.0
 20
953.0
 30
0.0
  0
VERTEX
  8
0
 10
118.0
 20
1451.0
 30
0.0
  0
VERTEX
  8
0
 10
0.0
 20
1451.0
 30
0.0
  0
SEQEND
  0
SOLID
 62
69
  8
0
 10
0.0
 20
953.0
 30
0.0
 11
118.0
 21
953.0
 31
0.0
 13
118.0
 23
1451.0
 33
0.0
 12
0.0
 22
1451.0
 32
0.0
  0
ENDSEC
  0
EOF
