  0
SECTION
  2
HEADER
  9
$AUNITS
 70
0
  9
$ANGBASE
 50
0.0
  9
$ACADVER
  1
AC1009
  9
$EXTMAX
 10
100.0
 20
100.0
 30
0.0
  9
$UNITMODE
 70
0
  9
$EXTMIN
 10
0.0
 20
0.0
 30
0.0
  9
$INSBASE
 10
0.0
 20
0.0
 30
0.0
  9
$ANGDIR
 70
0
  0
ENDSEC
  0
SECTION
  2
TABLES
  0
TABLE
  2
LTYPE
 70
19
  0
LTYPE
  2
DASHEDX2
 70
0
  3
Dashed (2x) ____  ____  ____  ____  ____  ____
 72
65
 73
2
 40
1.2
 49
1.0
 49
-0.2
  0
LTYPE
  2
DOTX2
 70
0
  3
Dot (2x) .    .    .    .    .    .    .    . 
 72
65
 73
2
 40
0.4
 49
0.0
 49
-0.4
  0
LTYPE
  2
DIVIDE2
 70
0
  3
Divide(.5x) _ . _ . _ . _ . _ . _ . _ . _
 72
65
 73
6
 40
0.8
 49
0.5
 49
-0.1
 49
0.0
 49
-0.1
 49
0.0
 49
-0.1
  0
LTYPE
  2
CENTERX2
 70
0
  3
Center (2x) ________  __  ________  __  ________
 72
65
 73
4
 40
3.5
 49
2.5
 49
-0.25
 49
0.5
 49
-0.25
  0
LTYPE
  2
DIVIDEX2
 70
0
  3
Divide (2x) ____  . .  ____  . .  ____  . .  ____
 72
65
 73
6
 40
2.6
 49
2.0
 49
-0.2
 49
0.0
 49
-0.2
 49
0.0
 49
-0.2
  0
LTYPE
  2
PHANTOM2
 70
0
  3
Phantom (.5x) ___ _ _ ___ _ _ ___ _ _ ___ _ _ ___
 72
65
 73
6
 40
1.25
 49
0.625
 49
-0.125
 49
0.125
 49
-0.125
 49
0.125
 49
-0.125
  0
LTYPE
  2
DOT2
 70
0
  3
Dot (.5) . . . . . . . . . . . . . . . . . . . 
 72
65
 73
2
 40
0.1
 49
0.0
 49
-0.1
  0
LTYPE
  2
CENTER
 70
0
  3
Center ____ _ ____ _ ____ _ ____ _ ____ _ ____
 72
65
 73
4
 40
2.0
 49
1.25
 49
-0.25
 49
0.25
 49
-0.25
  0
LTYPE
  2
DIVIDE
 70
0
  3
Divide __ . . __ . . __ . . __ . . __ . . __
 72
65
 73
6
 40
1.6
 49
1.0
 49
-0.2
 49
0.0
 49
-0.2
 49
0.0
 49
-0.2
  0
LTYPE
  2
DASHED
 70
0
  3
Dashed __ __ __ __ __ __ __ __ __ __ __ __ __ _
 72
65
 73
2
 40
0.6
 49
0.5
 49
-0.1
  0
LTYPE
  2
DASHED2
 70
0
  3
Dashed (.5x) _ _ _ _ _ _ _ _ _ _ _ _ _ _
 72
65
 73
2
 40
0.3
 49
0.25
 49
-0.05
  0
LTYPE
  2
CONTINUOUS
 70
0
  3
Solid
 72
65
 73
0
 40
0.0
  0
LTYPE
  2
DOT
 70
0
  3
Dot .  .  .  .  .  .  .  .  .  .  .  .  .  .  .  .
 72
65
 73
2
 40
0.2
 49
0.0
 49
-0.2
  0
LTYPE
  2
CENTER2
 70
0
  3
Center (.5x) ____ _ ____ _ ____ _ ____ _ ____
 72
65
 73
4
 40
1.0
 49
0.625
 49
-0.125
 49
0.125
 49
-0.125
  0
LTYPE
  2
DASHDOTX2
 70
0
  3
Dash dot (2x) ____  .  ____  .  ____  .  ____
 72
65
 73
4
 40
2.4
 49
2.0
 49
-0.2
 49
0.0
 49
-0.2
  0
LTYPE
  2
PHANTOMX2
 70
0
  3
Phantom (2x)____________    ____    ____    ____________
 72
65
 73
6
 40
4.25
 49
2.5
 49
-0.25
 49
0.5
 49
-0.25
 49
0.5
 49
-0.25
  0
LTYPE
  2
PHANTOM
 70
0
  3
Phantom ______  __  __  ______  __  __  ______
 72
65
 73
6
 40
2.5
 49
1.25
 49
-0.25
 49
0.25
 49
-0.25
 49
0.25
 49
-0.25
  0
LTYPE
  2
DASHDOT
 70
0
  3
Dash dot __ . __ . __ . __ . __ . __ . __ . __
 72
65
 73
4
 40
1.4
 49
1.0
 49
-0.2
 49
0.0
 49
-0.2
  0
LTYPE
  2
DASHDOT2
 70
0
  3
Dash dot (.5x) _ . _ . _ . _ . _ . _ . _ . _
 72
65
 73
4
 40
0.7
 49
0.5
 49
-0.1
 49
0.0
 49
-0.1
  0
ENDTAB
  0
TABLE
  2
LAYER
 70
5
  0
LAYER
  2
TABLEGRID
 70
0
 62
1
  6
CONTINUOUS
  0
LAYER
  2
VIEWPORTS
 70
0
 62
7
  6
CONTINUOUS
  0
LAYER
  2
DIMENSIONS
 70
0
 62
1
  6
CONTINUOUS
  0
LAYER
  2
TABLEBACKGROUND
 70
0
 62
1
  6
CONTINUOUS
  0
LAYER
  2
TABLECONTENT
 70
0
 62
1
  6
CONTINUOUS
  0
ENDTAB
  0
TABLE
  2
STYLE
 70
12
  0
STYLE
  2
TIMES
 70
0
 40
0.0
 41
1.0
 42
1.0
 50
0.0
 71
0
  3
times.ttf
  4

  0
STYLE
  2
TIMES_BOLD
 70
0
 40
0.0
 41
1.0
 42
1.0
 50
0.0
 71
0
  3
timesbd.ttf
  4

  0
STYLE
  2
TIMES_ITALIC
 70
0
 40
0.0
 41
1.0
 42
1.0
 50
0.0
 71
0
  3
timesi.ttf
  4

  0
STYLE
  2
ISOCPEUR_ITALIC
 70
0
 40
0.0
 41
1.0
 42
1.0
 50
0.0
 71
0
  3
isocpeui.ttf
  4

  0
STYLE
  2
ISOCPEUR
 70
0
 40
0.0
 41
1.0
 42
1.0
 50
0.0
 71
0
  3
isocpeur.ttf
  4

  0
STYLE
  2
TIMES_BOLD_ITALIC
 70
0
 40
0.0
 41
1.0
 42
1.0
 50
0.0
 71
0
  3
timesbi.ttf
  4

  0
STYLE
  2
ARIAL_ITALIC
 70
0
 40
0.0
 41
1.0
 42
1.0
 50
0.0
 71
0
  3
ariali.ttf
  4

  0
STYLE
  2
ARIAL_BOLD_ITALIC
 70
0
 40
0.0
 41
1.0
 42
1.0
 50
0.0
 71
0
  3
arialbi.ttf
  4

  0
STYLE
  2
STANDARD
 70
0
 40
0.0
 41
1.0
 42
1.0
 50
0.0
 71
0
  3
arial.ttf
  4

  0
STYLE
  2
ARIAL
 70
0
 40
0.0
 41
1.0
 42
1.0
 50
0.0
 71
0
  3
arial.ttf
  4

  0
STYLE
  2
ARIAL_BOLD
 70
0
 40
0.0
 41
1.0
 42
1.0
 50
0.0
 71
0
  3
arialbd.ttf
  4

  0
STYLE
  2
ARIAL_BLACK
 70
0
 40
0.0
 41
1.0
 42
1.0
 50
0.0
 71
0
  3
ariblk.ttf
  4

  0
ENDTAB
  0
TABLE
  2
VIEW
 70
0
  0
ENDTAB
  0
TABLE
  2
APPID
 70
1
  0
APPID
  2
DXFWRITE
 70
0
  0
ENDTAB
  0
TABLE
  2
VPORT
 70
0
  0
ENDTAB
  0
TABLE
  2
UCS
 70
0
  0
ENDTAB
  0
ENDSEC
  0
SECTION
  2
BLOCKS
  0
ENDSEC
  0
SECTION
  2
ENTITIES
  0
VIEWPORT
  8
VIEWPORTS
 67
1
 10
0.0
 20
0.0
 30
0.0
 40
1.0
 41
1.0
 68
1
 69
1
1001
ACAD
1000
MVIEW
1002
{
1070
16
1010
0.0
1020
0.0
1030
0.0
1010
0.0
1020
0.0
1030
0.0
1040
0.0
1040
1.0
1040
0.0
1040
0.0
1040
50.0
1040
0.0
1040
0.0
1070
0
1070
100
1070
1
1070
3
1070
0
1070
0
1070
0
1070
0
1040
0.0
1040
0.0
1040
0.0
1040
0.1
1040
0.1
1040
0.1
1040
0.1
1070
0
1002
{
1002
}
1002
}
  0
POLYLINE
 62
256
  8
0
 66
1
 10
0.0
 20
0.0
 30
0.0
 70
9
  0
VERTEX
  8
0
 10
14.0
 20
12.0
 30
0.0
  0
VERTEX
  8
0
 10
42.0
 20
12.0
 30
0.0
  0
VERTEX
  8
0
 10
42.0
 20
36.0
 30
0.0
  0
VERTEX
  8
0
 10
14.0
 20
36.0
 30
0.0
  0
SEQEND
  0
SOLID
 62
18
  8
0
 10
14.0
 20
12.0
 30
0.0
 11
42.0
 21
12.0
 31
0.0
 13
42.0
 23
36.0
 33
0.0
 12
14.0
 22
36.0
 32
0.0
  0
POLYLINE
 62
256
  8
0
 66
1
 10
0.0
 20
0.0
 30
0.0
 70
9
  0
VERTEX
  8
0
 10
10.0
 20
37.0
 30
0.0
  0
VERTEX
  8
0
 10
30.0
 20
37.0
 30
0.0
  0
VERTEX
  8
0
 10
30.0
 20
63.0
 30
0.0
  0
VERTEX
  8
0
 10
10.0
 20
63.0
 30
0.0
  0
SEQEND
  0
SOLID
 62
117
  8
0
 10
10.0
 20
37.0
 30
0.0
 11
30.0
 21
37.0
 31
0.0
 13
30.0
 23
63.0
 33
0.0
 12
10.0
 22
63.0
 32
0.0
  0
POLYLINE
 62
256
  8
0
 66
1
 10
0.0
 20
0.0
 30
0.0
 70
9
  0
VERTEX
  8
0
 10
39.0
 20
10.0
 30
0.0
  0
VERTEX
  8
0
 10
61.0
 20
10.0
 30
0.0
  0
VERTEX
  8
0
 10
61.0
 20
30.0
 30
0.0
  0
VERTEX
  8
0
 10
39.0
 20
30.0
 30
0.0
  0
SEQEND
  0
SOLID
 62
41
  8
0
 10
39.0
 20
10.0
 30
0.0
 11
61.0
 21
10.0
 31
0.0
 13
61.0
 23
30.0
 33
0.0
 12
39.0
 22
30.0
 32
0.0
  0
POLYLINE
 62
256
  8
0
 66
1
 10
0.0
 20
0.0
 30
0.0
 70
9
  0
VERTEX
  8
0
 10
30.0
 20
35.0
 30
0.0
  0
VERTEX
  8
0
 10
50.0
 20
35.0
 30
0.0
  0
VERTEX
  8
0
 10
50.0
 20
57.0
 30
0.0
  0
VERTEX
  8
0
 10
30.0
 20
57.0
 30
0.0
  0
SEQEND
  0
SOLID
 62
192
  8
0
 10
30.0
 20
35.0
 30
0.0
 11
50.0
 21
35.0
 31
0.0
 13
50.0
 23
57.0
 33
0.0
 12
30.0
 22
57.0
 32
0.0
  0
POLYLINE
 62
256
  8
0
 66
1
 10
0.0
 20
0.0
 30
0.0
 70
9
  0
VERTEX
  8
0
 10
52.0
 20
29.0
 30
0.0
  0
VERTEX
  8
0
 10
76.0
 20
29.0
 30
0.0
  0
VERTEX
  8
0
 10
76.0
 20
47.0
 30
0.0
  0
VERTEX
  8
0
 10
52.0
 20
47.0
 30
0.0
  0
SEQEND
  0
SOLID
 62
145
  8
0
 10
52.0
 20
29.0
 30
0.0
 11
76.0
 21
29.0
 31
0.0
 13
76.0
 23
47.0
 33
0.0
 12
52.0
 22
47.0
 32
0.0
  0
POLYLINE
 62
256
  8
0
 66
1
 10
0.0
 20
0.0
 30
0.0
 70
9
  0
VERTEX
  8
0
 10
6.0
 20
63.0
 30
0.0
  0
VERTEX
  8
0
 10
18.0
 20
63.0
 30
0.0
  0
VERTEX
  8
0
 10
18.0
 20
89.0
 30
0.0
  0
VERTEX
  8
0
 10
6.0
 20
89.0
 30
0.0
  0
SEQEND
  0
SOLID
 62
89
  8
0
 10
6.0
 20
63.0
 30
0.0
 11
18.0
 21
63.0
 31
0.0
 13
18.0
 23
89.0
 33
0.0
 12
6.0
 22
89.0
 32
0.0
  0
POLYLINE
 62
256
  8
0
 66
1
 10
0.0
 20
0.0
 30
0.0
 70
9
  0
VERTEX
  8
0
 10
60.0
 20
7.0
 30
0.0
  0
VERTEX
  8
0
 10
80.0
 20
7.0
 30
0.0
  0
VERTEX
  8
0
 10
80.0
 20
21.0
 30
0.0
  0
VERTEX
  8
0
 10
60.0
 20
21.0
 30
0.0
  0
SEQEND
  0
SOLID
 62
27
  8
0
 10
60.0
 20
7.0
 30
0.0
 11
80.0
 21
7.0
 31
0.0
 13
80.0
 23
21.0
 33
0.0
 12
60.0
 22
21.0
 32
0.0
  0
POLYLINE
 62
256
  8
0
 66
1
 10
0.0
 20
0.0
 30
0.0
 70
9
  0
VERTEX
  8
0
 10
24.0
 20
55.0
 30
0.0
  0
VERTEX
  8
0
 10
48.0
 20
55.0
 30
0.0
  0
VERTEX
  8
0
 10
48.0
 20
65.0
 30
0.0
  0
VERTEX
  8
0
 10
24.0
 20
65.0
 30
0.0
  0
SEQEND
  0
SOLID
 62
226
  8
0
 10
24.0
 20
55.0
 30
0.0
 11
48.0
 21
55.0
 31
0.0
 13
48.0
 23
65.0
 33
0.0
 12
24.0
 22
65.0
 32
0.0
  0
POLYLINE
 62
256
  8
0
 66
1
 10
0.0
 20
0.0
 30
0.0
 70
9
  0
VERTEX
  8
0
 10
45.0
 20
47.0
 30
0.0
  0
VERTEX
  8
0
 10
55.0
 20
47.0
 30
0.0
  0
VERTEX
  8
0
 10
55.0
 20
65.0
 30
0.0
  0
VERTEX
  8
0
 10
45.0
 20
65.0
 30
0.0
  0
SEQEND
  0
SOLID
 62
28
  8
0
 10
45.0
 20
47.0
 30
0.0
 11
55.0
 21
47.0
 31
0.0
 13
55.0
 23
65.0
 33
0.0
 12
45.0
 22
65.0
 32
0.0
  0
POLYLINE
 62
256
  8
0
 66
1
 10
0.0
 20
0.0
 30
0.0
 70
9
  0
VERTEX
  8
0
 10
23.0
 20
64.0
 30
0.0
  0
VERTEX
  8
0
 10
45.0
 20
64.0
 30
0.0
  0
VERTEX
  8
0
 10
45.0
 20
72.0
 30
0.0
  0
VERTEX
  8
0
 10
23.0
 20
72.0
 30
0.0
  0
SEQEND
  0
SOLID
 62
171
  8
0
 10
23.0
 20
64.0
 30
0.0
 11
45.0
 21
64.0
 31
0.0
 13
45.0
 23
72.0
 33
0.0
 12
23.0
 22
72.0
 32
0.0
  0
POLYLINE
 62
256
  8
0
 66
1
 10
0.0
 20
0.0
 30
0.0
 70
9
  0
VERTEX
  8
0
 10
64.0
 20
17.0
 30
0.0
  0
VERTEX
  8
0
 10
92.0
 20
17.0
 30
0.0
  0
VERTEX
  8
0
 10
92.0
 20
23.0
 30
0.0
  0
VERTEX
  8
0
 10
64.0
 20
23.0
 30
0.0
  0
SEQEND
  0
SOLID
 62
238
  8
0
 10
64.0
 20
17.0
 30
0.0
 11
92.0
 21
17.0
 31
0.0
 13
92.0
 23
23.0
 33
0.0
 12
64.0
 22
23.0
 32
0.0
  0
POLYLINE
 62
256
  8
0
 66
1
 10
0.0
 20
0.0
 30
0.0
 70
9
  0
VERTEX
  8
0
 10
54.0
 20
48.0
 30
0.0
  0
VERTEX
  8
0
 10
62.0
 20
48.0
 30
0.0
  0
VERTEX
  8
0
 10
62.0
 20
68.0
 30
0.0
  0
VERTEX
  8
0
 10
54.0
 20
68.0
 30
0.0
  0
SEQEND
  0
SOLID
 62
41
  8
0
 10
54.0
 20
48.0
 30
0.0
 11
62.0
 21
48.0
 31
0.0
 13
62.0
 23
68.0
 33
0.0
 12
54.0
 22
68.0
 32
0.0
  0
POLYLINE
 62
256
  8
0
 66
1
 10
0.0
 20
0.0
 30
0.0
 70
9
  0
VERTEX
  8
0
 10
42.0
 20
59.0
 30
0.0
  0
VERTEX
  8
0
 10
54.0
 20
59.0
 30
0.0
  0
VERTEX
  8
0
 10
54.0
 20
65.0
 30
0.0
  0
VERTEX
  8
0
 10
42.0
 20
65.0
 30
0.0
  0
SEQEND
  0
SOLID
 62
21
  8
0
 10
42.0
 20
59.0
 30
0.0
 11
54.0
 21
59.0
 31
0.0
 13
54.0
 23
65.0
 33
0.0
 12
42.0
 22
65.0
 32
0.0
  0
POLYLINE
 62
256
  8
0
 66
1
 10
0.0
 20
0.0
 30
0.0
 70
9
  0
VERTEX
  8
0
 10
68.0
 20
23.0
 30
0.0
  0
VERTEX
  8
0
 10
76.0
 20
23.0
 30
0.0
  0
VERTEX
  8
0
 10
76.0
 20
29.0
 30
0.0
  0
VERTEX
  8
0
 10
68.0
 20
29.0
 30
0.0
  0
SEQEND
  0
SOLID
 62
200
  8
0
 10
68.0
 20
23.0
 30
0.0
 11
76.0
 21
23.0
 31
0.0
 13
76.0
 23
29.0
 33
0.0
 12
68.0
 22
29.0
 32
0.0
  0
POLYLINE
 62
256
  8
0
 66
1
 10
0.0
 20
0.0
 30
0.0
 70
9
  0
VERTEX
  8
0
 10
65.0
 20
36.0
 30
0.0
  0
VERTEX
  8
0
 10
67.0
 20
36.0
 30
0.0
  0
VERTEX
  8
0
 10
67.0
 20
56.0
 30
0.0
  0
VERTEX
  8
0
 10
65.0
 20
56.0
 30
0.0
  0
SEQEND
  0
SOLID
 62
22
  8
0
 10
65.0
 20
36.0
 30
0.0
 11
67.0
 21
36.0
 31
0.0
 13
67.0
 23
56.0
 33
0.0
 12
65.0
 22
56.0
 32
0.0
  0
POLYLINE
 62
256
  8
0
 66
1
 10
0.0
 20
0.0
 30
0.0
 70
9
  0
VERTEX
  8
0
 10
29.0
 20
47.0
 30
0.0
  0
VERTEX
  8
0
 10
47.0
 20
47.0
 30
0.0
  0
VERTEX
  8
0
 10
47.0
 20
49.0
 30
0.0
  0
VERTEX
  8
0
 10
29.0
 20
49.0
 30
0.0
  0
SEQEND
  0
SOLID
 62
221
  8
0
 10
29.0
 20
47.0
 30
0.0
 11
47.0
 21
47.0
 31
0.0
 13
47.0
 23
49.0
 33
0.0
 12
29.0
 22
49.0
 32
0.0
  0
POLYLINE
 62
256
  8
0
 66
1
 10
0.0
 20
0.0
 30
0.0
 70
9
  0
VERTEX
  8
0
 10
71.0
 20
7.0
 30
0.0
  0
VERTEX
  8
0
 10
73.0
 20
7.0
 30
0.0
  0
VERTEX
  8
0
 10
73.0
 20
21.0
 30
0.0
  0
VERTEX
  8
0
 10
71.0
 20
21.0
 30
0.0
  0
SEQEND
  0
SOLID
 62
189
  8
0
 10
71.0
 20
7.0
 30
0.0
 11
73.0
 21
7.0
 31
0.0
 13
73.0
 23
21.0
 33
0.0
 12
71.0
 22
21.0
 32
0.0
  0
POLYLINE
 62
256
  8
0
 66
1
 10
0.0
 20
0.0
 30
0.0
 70
9
  0
VERTEX
  8
0
 10
27.0
 20
49.0
 30
0.0
  0
VERTEX
  8
0
 10
41.0
 20
49.0
 30
0.0
  0
VERTEX
  8
0
 10
41.0
 20
51.0
 30
0.0
  0
VERTEX
  8
0
 10
27.0
 20
51.0
 30
0.0
  0
SEQEND
  0
SOLID
 62
39
  8
0
 10
27.0
 20
49.0
 30
0.0
 11
41.0
 21
49.0
 31
0.0
 13
41.0
 23
51.0
 33
0.0
 12
27.0
 22
51.0
 32
0.0
  0
POLYLINE
 62
256
  8
0
 66
1
 10
0.0
 20
0.0
 30
0.0
 70
9
  0
VERTEX
  8
0
 10
30.0
 20
22.0
 30
0.0
  0
VERTEX
  8
0
 10
34.0
 20
22.0
 30
0.0
  0
VERTEX
  8
0
 10
34.0
 20
26.0
 30
0.0
  0
VERTEX
  8
0
 10
30.0
 20
26.0
 30
0.0
  0
SEQEND
  0
SOLID
 62
15
  8
0
 10
30.0
 20
22.0
 30
0.0
 11
34.0
 21
22.0
 31
0.0
 13
34.0
 23
26.0
 33
0.0
 12
30.0
 22
26.0
 32
0.0
  0
POLYLINE
 62
256
  8
0
 66
1
 10
0.0
 20
0.0
 30
0.0
 70
9
  0
VERTEX
  8
0
 10
36.0
 20
21.0
 30
0.0
  0
VERTEX
  8
0
 10
44.0
 20
21.0
 30
0.0
  0
VERTEX
  8
0
 10
44.0
 20
23.0
 30
0.0
  0
VERTEX
  8
0
 10
36.0
 20
23.0
 30
0.0
  0
SEQEND
  0
SOLID
 62
147
  8
0
 10
36.0
 20
21.0
 30
0.0
 11
44.0
 21
21.0
 31
0.0
 13
44.0
 23
23.0
 33
0.0
 12
36.0
 22
23.0
 32
0.0
  0
ENDSEC
  0
EOF
